<mxfile host="Electron" agent="Mozilla/5.0 (Windows NT 10.0; Win64; x64) AppleWebKit/537.36 (KHTML, like Gecko) draw.io/28.2.8 Chrome/140.0.7339.240 Electron/38.4.0 Safari/537.36" version="28.2.8">
  <diagram name="Page-1" id="m62aZnexxPj0olr0SGqf">
    <mxGraphModel dx="1111" dy="611" grid="1" gridSize="10" guides="1" tooltips="1" connect="1" arrows="1" fold="1" page="1" pageScale="1" pageWidth="850" pageHeight="1100" math="0" shadow="0">
      <root>
        <mxCell id="0" />
        <mxCell id="1" parent="0" />
        <mxCell id="ylBuC1gKA4XFzBno3lIs-13" style="edgeStyle=orthogonalEdgeStyle;rounded=0;orthogonalLoop=1;jettySize=auto;html=1;" edge="1" parent="1" source="ylBuC1gKA4XFzBno3lIs-1" target="ylBuC1gKA4XFzBno3lIs-6">
          <mxGeometry relative="1" as="geometry" />
        </mxCell>
        <mxCell id="ylBuC1gKA4XFzBno3lIs-1" value="Start application" style="ellipse;whiteSpace=wrap;html=1;" vertex="1" parent="1">
          <mxGeometry x="380" y="95" width="140" height="70" as="geometry" />
        </mxCell>
        <mxCell id="ylBuC1gKA4XFzBno3lIs-4" style="edgeStyle=orthogonalEdgeStyle;rounded=0;orthogonalLoop=1;jettySize=auto;html=1;" edge="1" parent="1" source="ylBuC1gKA4XFzBno3lIs-2" target="ylBuC1gKA4XFzBno3lIs-1">
          <mxGeometry relative="1" as="geometry">
            <Array as="points">
              <mxPoint x="310" y="130" />
              <mxPoint x="310" y="130" />
            </Array>
          </mxGeometry>
        </mxCell>
        <mxCell id="ylBuC1gKA4XFzBno3lIs-2" value="User" style="shape=umlActor;verticalLabelPosition=bottom;verticalAlign=top;html=1;" vertex="1" parent="1">
          <mxGeometry x="140" y="80" width="70" height="100" as="geometry" />
        </mxCell>
        <mxCell id="ylBuC1gKA4XFzBno3lIs-15" style="edgeStyle=orthogonalEdgeStyle;rounded=0;orthogonalLoop=1;jettySize=auto;html=1;entryX=0.5;entryY=0;entryDx=0;entryDy=0;" edge="1" parent="1" source="ylBuC1gKA4XFzBno3lIs-6" target="ylBuC1gKA4XFzBno3lIs-14">
          <mxGeometry relative="1" as="geometry" />
        </mxCell>
        <mxCell id="ylBuC1gKA4XFzBno3lIs-6" value="Search verses by text" style="ellipse;whiteSpace=wrap;html=1;" vertex="1" parent="1">
          <mxGeometry x="380" y="210" width="140" height="70" as="geometry" />
        </mxCell>
        <mxCell id="ylBuC1gKA4XFzBno3lIs-17" style="edgeStyle=orthogonalEdgeStyle;rounded=0;orthogonalLoop=1;jettySize=auto;html=1;entryX=0.5;entryY=0;entryDx=0;entryDy=0;" edge="1" parent="1" source="ylBuC1gKA4XFzBno3lIs-14" target="ylBuC1gKA4XFzBno3lIs-16">
          <mxGeometry relative="1" as="geometry" />
        </mxCell>
        <mxCell id="ylBuC1gKA4XFzBno3lIs-14" value="Search by reference" style="ellipse;whiteSpace=wrap;html=1;" vertex="1" parent="1">
          <mxGeometry x="380" y="320" width="140" height="70" as="geometry" />
        </mxCell>
        <mxCell id="ylBuC1gKA4XFzBno3lIs-16" value="View searches" style="ellipse;whiteSpace=wrap;html=1;" vertex="1" parent="1">
          <mxGeometry x="380" y="430" width="140" height="70" as="geometry" />
        </mxCell>
      </root>
    </mxGraphModel>
  </diagram>
</mxfile>
